<mxfile host="" modified="2021-02-03T14:06:33.471Z" agent="5.0 (Windows NT 6.2; Win64; x64) AppleWebKit/537.36 (KHTML, like Gecko) Chrome/84.0.4147.105 Safari/537.36" etag="u9ENeMR-1N88HHG-bp6V" version="13.7.9" type="embed" pages="2"><diagram id="OMiFd6Sh_24sQ-4vdrzR" name="DockerDataFlow"><mxGraphModel dx="937" dy="1143" grid="1" gridSize="10" guides="1" tooltips="1" connect="1" arrows="1" fold="1" page="0" pageScale="1" pageWidth="1654" pageHeight="1169" background="none" math="0" shadow="1"><root><mxCell id="0"/><mxCell id="1" parent="0"/><mxCell id="xdcIngjJ-QziRpFktCmz-25" style="edgeStyle=orthogonalEdgeStyle;rounded=0;orthogonalLoop=1;jettySize=auto;html=1;exitX=0.5;exitY=0;exitDx=0;exitDy=0;" parent="1" source="XxlSsvK2DxJtwF0AhiSc-23" target="xdcIngjJ-QziRpFktCmz-24" edge="1"><mxGeometry relative="1" as="geometry"/></mxCell><mxCell id="xdcIngjJ-QziRpFktCmz-27" style="edgeStyle=orthogonalEdgeStyle;rounded=0;orthogonalLoop=1;jettySize=auto;html=1;exitX=0.5;exitY=0;exitDx=0;exitDy=0;entryX=0;entryY=0.5;entryDx=0;entryDy=0;" parent="1" source="XxlSsvK2DxJtwF0AhiSc-23" target="xdcIngjJ-QziRpFktCmz-26" edge="1"><mxGeometry relative="1" as="geometry"/></mxCell><mxCell id="XxlSsvK2DxJtwF0AhiSc-23" value="Service create" style="rounded=0;whiteSpace=wrap;html=1;" parent="1" vertex="1"><mxGeometry x="230" y="830" width="120" height="60" as="geometry"/></mxCell><mxCell id="xdcIngjJ-QziRpFktCmz-22" value="Service death" style="rounded=0;whiteSpace=wrap;html=1;" parent="1" vertex="1"><mxGeometry x="230" y="-130" width="120" height="60" as="geometry"/></mxCell><mxCell id="xdcIngjJ-QziRpFktCmz-39" style="edgeStyle=orthogonalEdgeStyle;rounded=0;orthogonalLoop=1;jettySize=auto;html=1;exitX=0.5;exitY=0;exitDx=0;exitDy=0;entryX=0.5;entryY=1;entryDx=0;entryDy=0;strokeWidth=1;" parent="1" source="xdcIngjJ-QziRpFktCmz-23" target="xdcIngjJ-QziRpFktCmz-22" edge="1"><mxGeometry relative="1" as="geometry"/></mxCell><mxCell id="xdcIngjJ-QziRpFktCmz-23" value="Service update" style="rounded=0;whiteSpace=wrap;html=1;" parent="1" vertex="1"><mxGeometry x="230" y="150" width="120" height="60" as="geometry"/></mxCell><mxCell id="xdcIngjJ-QziRpFktCmz-28" style="edgeStyle=orthogonalEdgeStyle;rounded=0;orthogonalLoop=1;jettySize=auto;html=1;exitX=0.5;exitY=0;exitDx=0;exitDy=0;entryX=0.5;entryY=1;entryDx=0;entryDy=0;" parent="1" source="xdcIngjJ-QziRpFktCmz-24" target="xdcIngjJ-QziRpFktCmz-23" edge="1"><mxGeometry relative="1" as="geometry"/></mxCell><mxCell id="xdcIngjJ-QziRpFktCmz-30" style="edgeStyle=orthogonalEdgeStyle;rounded=0;orthogonalLoop=1;jettySize=auto;html=1;exitX=0.5;exitY=0;exitDx=0;exitDy=0;entryX=0;entryY=0.5;entryDx=0;entryDy=0;" parent="1" source="xdcIngjJ-QziRpFktCmz-24" target="xdcIngjJ-QziRpFktCmz-29" edge="1"><mxGeometry relative="1" as="geometry"/></mxCell><mxCell id="xdcIngjJ-QziRpFktCmz-38" style="edgeStyle=orthogonalEdgeStyle;rounded=0;orthogonalLoop=1;jettySize=auto;html=1;exitX=1;exitY=0.75;exitDx=0;exitDy=0;entryX=0;entryY=0.5;entryDx=0;entryDy=0;strokeWidth=1;" parent="1" source="xdcIngjJ-QziRpFktCmz-24" target="xdcIngjJ-QziRpFktCmz-34" edge="1"><mxGeometry relative="1" as="geometry"/></mxCell><mxCell id="xdcIngjJ-QziRpFktCmz-24" value="Container creation" style="rounded=1;whiteSpace=wrap;html=1;" parent="1" vertex="1"><mxGeometry x="230" y="480" width="120" height="60" as="geometry"/></mxCell><mxCell id="xdcIngjJ-QziRpFktCmz-36" style="edgeStyle=orthogonalEdgeStyle;rounded=0;orthogonalLoop=1;jettySize=auto;html=1;exitX=1;exitY=0.5;exitDx=0;exitDy=0;entryX=0.5;entryY=1;entryDx=0;entryDy=0;strokeWidth=1;dashed=1;" parent="1" source="xdcIngjJ-QziRpFktCmz-26" target="xdcIngjJ-QziRpFktCmz-34" edge="1"><mxGeometry relative="1" as="geometry"/></mxCell><mxCell id="xdcIngjJ-QziRpFktCmz-26" value="&lt;div&gt;Create service&lt;/div&gt;&lt;div&gt;in DB&lt;br&gt;&lt;/div&gt;" style="shape=process;whiteSpace=wrap;html=1;backgroundOutline=1;" parent="1" vertex="1"><mxGeometry x="500" y="730" width="120" height="60" as="geometry"/></mxCell><mxCell id="xdcIngjJ-QziRpFktCmz-29" value="&lt;div&gt;Create container&lt;/div&gt;&lt;div&gt;in DB&lt;br&gt;&lt;/div&gt;" style="shape=process;whiteSpace=wrap;html=1;backgroundOutline=1;" parent="1" vertex="1"><mxGeometry x="430" y="370" width="120" height="60" as="geometry"/></mxCell><mxCell id="xdcIngjJ-QziRpFktCmz-34" value="Bungee Container" style="rounded=0;whiteSpace=wrap;html=1;" parent="1" vertex="1"><mxGeometry x="640" y="505" width="120" height="40" as="geometry"/></mxCell></root></mxGraphModel></diagram><diagram id="4F4N8v271FKx0iYN6hkK" name="Page-2"><mxGraphModel dx="937" dy="743" grid="1" gridSize="10" guides="1" tooltips="1" connect="1" arrows="1" fold="1" page="1" pageScale="1" pageWidth="850" pageHeight="1100" math="0" shadow="0"><root><mxCell id="C4fNigavTfgOgkANDi07-0"/><mxCell id="C4fNigavTfgOgkANDi07-1" parent="C4fNigavTfgOgkANDi07-0"/></root></mxGraphModel></diagram></mxfile>